<?xml version="1.0" encoding="UTF-8"?>
<!DOCTYPE svg PUBLIC "-//W3C//DTD SVG 1.1//EN" "http://www.w3.org/Graphics/SVG/1.1/DTD/svg11.dtd">
<!-- Creator: CorelDRAW X6 -->
<svg xmlns="http://www.w3.org/2000/svg" xml:space="preserve" width="45.0336mm" height="45.8491mm" version="1.1" style="shape-rendering:geometricPrecision; text-rendering:geometricPrecision; image-rendering:optimizeQuality; fill-rule:evenodd; clip-rule:evenodd"
viewBox="0 0 4389 4468"
 xmlns:xlink="http://www.w3.org/1999/xlink">
 <defs>
  <style type="text/css">
   <![CDATA[
    .fil3 {fill:#C4146E}
    .fil0 {fill:#4D2355}
    .fil1 {fill:#A1195B}
    .fil2 {fill:#C4146E;fill-rule:nonzero}
   ]]>
  </style>
 </defs>
 <g id="Layer_x0020_1">
  <metadata id="CorelCorpID_0Corel-Layer"/>
  <path class="fil0" d="M4281 2346c-31,655 -355,1148 -667,1446 -631,602 -1571,754 -2360,342 -114,-59 -229,-135 -320,-208 -95,-76 -123,-100 -210,-185 -99,-96 -221,-253 -290,-367 -232,-388 -348,-772 -326,-1258 16,-357 133,-733 304,-1009 34,-56 68,-112 107,-160 40,-50 73,-102 116,-146 12,-13 19,-21 30,-34 16,-19 17,-17 35,-34 40,-37 84,-92 134,-128 25,-19 48,-40 73,-61 374,-297 905,-474 1400,-439 332,24 574,96 832,222 120,59 232,129 325,204l106 86c12,12 23,20 38,32 15,12 18,20 31,33 101,100 130,126 220,245 303,400 448,899 423,1418zm-2231 -2342c-405,24 -735,147 -1042,339 -58,36 -110,77 -162,116 -122,90 -183,165 -289,267l-122 150c-503,678 -573,1614 -199,2371 73,148 226,374 337,490 24,25 38,51 66,73 26,20 28,31 70,68 116,101 173,153 310,241 114,73 225,134 364,191 300,125 589,171 955,156 367,-15 758,-164 1031,-346 40,-27 195,-140 238,-179l302 -317c59,-75 89,-120 145,-203 67,-100 137,-247 184,-371 249,-657 185,-1422 -178,-2015l-112 -166c-19,-26 -40,-50 -61,-78 -11,-15 -21,-23 -32,-37l-33 -37c-101,-110 -239,-241 -366,-324 -28,-18 -57,-37 -84,-55 -95,-67 -255,-142 -367,-188 -272,-111 -629,-166 -957,-147z"/>
  <path class="fil0" d="M3661 3393c-966,-6 -1963,-1 -2928,0l23 48c956,-6 1924,-1 2882,0l23 -47z"/>
  <polygon class="fil0" points="384,2346 4000,2347 3998,2300 384,2299 "/>
  <path class="fil0" d="M1150 883c20,-55 44,-88 32,-164l-8 -24c-161,107 -95,236 -105,268l-118 132c6,-94 43,-58 -2,-222 -78,91 -82,115 -60,237 17,97 -23,87 -85,218 -2,-106 51,-44 -39,-238l-18 23c-13,26 -26,66 -27,95 -4,126 51,163 45,190 -2,9 -19,46 -24,56 -15,38 -28,81 -41,119 19,-168 -53,-193 -74,-232 -9,8 -2,-1 -8,10 -15,25 -19,92 -16,119 8,61 38,110 72,152 15,18 11,23 5,53 -5,28 -13,107 -21,126 -12,-72 -41,-160 -116,-186 -13,94 7,155 62,221 28,34 51,37 51,99 0,49 5,100 5,146 -13,-19 -36,-164 -157,-197 17,206 137,207 159,247 7,13 8,43 11,59 6,35 0,31 34,31l-12 -80c63,-40 144,-131 135,-248 -31,9 -80,53 -95,74 -22,33 -33,77 -51,116l-9 -180c21,-17 38,-23 59,-38 65,-43 112,-94 119,-186 -115,30 -133,110 -170,169l24 -197c107,-17 180,-81 199,-182 -85,16 -151,60 -185,142 2,-44 47,-166 67,-200 61,-9 101,-9 148,-39 31,-19 68,-64 83,-105 -100,4 -167,43 -207,93 4,-27 79,-141 98,-165 58,-3 101,5 153,-21 31,-15 84,-60 94,-88 -121,8 -112,-9 -205,49 9,-22 38,-55 54,-72l59 -69c111,38 229,-19 262,-90 -187,-4 -91,3 -200,34 17,-34 161,-142 208,-155 53,-15 88,-32 118,-63 22,-22 62,-73 73,-110 -209,21 -188,122 -260,180l-68 55c-23,18 -26,27 -51,38z"/>
  <path class="fil0" d="M3280 953c-88,-47 -92,-57 -219,-48 72,109 163,102 268,95 20,32 105,120 115,141 -65,-41 -111,-70 -215,-52 92,123 177,98 253,109 31,44 71,110 91,162 -56,-41 -70,-88 -203,-91 18,45 49,76 83,102 22,16 39,22 66,30l75 12c15,19 57,148 63,181 -20,-25 -39,-63 -66,-81 -27,-18 -72,-34 -109,-40 15,97 97,163 187,180 14,23 20,101 26,140l4 37c-2,16 -1,8 -3,14 -29,-85 -67,-140 -160,-161 10,98 77,198 171,214l-9 190c-26,-43 -12,-127 -143,-190 3,61 8,104 38,148 32,45 52,65 95,92l-8 88c31,-3 27,3 31,-32 2,-19 1,-45 12,-58 2,-3 33,-24 40,-29 94,-70 109,-106 125,-220 -86,29 -134,103 -161,196 -6,-12 1,-183 15,-201 20,-26 86,-69 105,-130 10,-34 16,-102 0,-132 -107,72 -102,112 -116,210 -10,-26 -16,-96 -22,-129 -16,-80 -6,-46 30,-105 39,-64 76,-164 28,-249 -23,15 -51,53 -66,88 -20,47 -14,91 -16,142 -16,-21 -31,-89 -43,-120 -25,-64 -36,-48 -3,-111 19,-35 36,-81 33,-130 -3,-39 -23,-105 -45,-121 -78,89 -46,174 -38,234 -12,-11 -45,-77 -58,-98 -33,-55 -41,-42 -26,-110 10,-47 19,-93 5,-141 -11,-38 -41,-82 -66,-96 -25,93 -32,116 -1,213l-75 -82c-52,-62 -41,-17 -39,-109 3,-114 -47,-171 -113,-212 -25,86 11,139 23,187l-49 -36c-105,-87 -56,-31 -118,-122 -50,-74 -93,-96 -209,-109 11,35 54,91 75,110 40,35 68,46 129,63 37,10 199,147 212,169z"/>
  <path class="fil0" d="M2959 3776c60,-59 125,-125 127,-254 -94,38 -130,115 -160,203 -28,83 -5,69 -82,100 -29,12 -108,42 -136,43 16,-14 35,-25 54,-40 49,-39 92,-102 92,-176 -41,4 -82,42 -106,66 -117,115 -42,159 -163,190 -42,10 -106,26 -146,31 7,-12 3,-6 14,-14 3,-3 11,-8 16,-11 57,-39 149,-95 153,-188 -150,35 -168,93 -247,222 -36,3 -69,5 -102,16 -24,7 -64,29 -82,27 -22,-2 -61,-24 -87,-30 -27,-6 -75,-4 -92,-20 -12,-11 -49,-93 -92,-137 -27,-29 -96,-73 -157,-74 5,20 22,56 31,72 6,11 13,20 21,32 33,47 90,78 139,103 -26,3 -114,-21 -144,-29 -72,-19 -66,-13 -94,-82 -30,-75 -89,-154 -180,-169 17,119 55,155 152,218 -36,-7 -97,-32 -135,-46 -67,-25 -64,-21 -89,-93 -17,-47 -29,-92 -55,-127 -13,-18 -73,-67 -100,-76 0,63 14,97 39,143 27,50 59,61 85,99 -34,-10 -77,-39 -113,-55 -53,-23 -58,-32 -87,-74 -40,-59 -120,-100 -222,-100 42,94 100,130 202,151 59,12 165,90 232,116 -41,-3 -147,-60 -248,23 100,52 145,63 260,16 67,-27 59,-12 123,11l125 44c-199,-4 -172,37 -242,72l14 9c66,35 156,18 221,-24 88,-58 60,-35 237,-8 -10,10 -6,8 -33,14 -67,15 -144,59 -169,112 59,9 124,5 170,-21 23,-13 41,-28 59,-42 22,-17 33,-32 51,-47 42,4 116,15 142,39 -20,20 -49,31 -70,53 6,12 -1,5 13,16 27,-8 71,-49 101,-47 27,2 72,42 96,52l11 -21c-36,-34 -57,-36 -76,-53l19 -10c47,-24 81,-27 135,-29 10,23 29,36 50,51 68,50 106,75 225,58 -52,-87 -154,-101 -202,-123 19,-11 100,-19 129,-25 105,-21 112,65 218,73 38,3 101,-7 122,-27 -52,-71 -161,-75 -242,-74l66 -23c23,-7 43,-13 64,-21 82,-30 64,-39 122,-12 122,56 149,33 260,-11 -15,-18 -28,-22 -53,-31 -91,-34 -118,-13 -196,3l33 -18c77,-32 134,-83 206,-98 83,-17 164,-73 193,-148 -101,-9 -186,48 -222,103 -48,75 -142,83 -196,126z"/>
  <g id="_766060840">
   <path class="fil0" d="M2173 1032c56,0 130,11 117,-41 -8,-31 -54,-23 -90,-23 -35,0 -82,-8 -94,19 -19,45 33,44 67,44z"/>
   <path class="fil0" d="M2305 1890c19,-74 -73,-57 -169,-57 -60,0 -81,70 0,72 49,1 138,11 169,-15z"/>
   <path class="fil0" d="M2168 499c-31,11 -50,26 -49,68 0,26 10,48 32,59l24 11c-48,11 -70,22 -74,77l192 2c-5,-60 -23,-66 -74,-79l7 -5c26,-16 44,-19 43,-66 -1,-44 -17,-51 -48,-70 4,-29 16,-77 -27,-75 -40,2 -30,47 -27,76z"/>
   <path class="fil0" d="M1959 2132l477 -1c-14,-67 -123,-57 -144,-165 -3,-17 -2,-23 -12,-40l-166 1c-1,2 -1,2 -2,5l-4 14c-2,7 -2,11 -4,18 -31,111 -128,99 -146,169z"/>
   <path class="fil0" d="M2571 2269c-2,-87 -55,-110 -131,-109l-486 0c-91,-1 -126,23 -128,112l745 -2z"/>
   <polygon class="fil0" points="2126,1808 2269,1809 2254,1050 2140,1052 "/>
   <path class="fil0" d="M3187 1658l-660 0c3,80 60,142 105,170 152,95 430,69 516,-66 18,-28 38,-63 39,-104z"/>
   <path class="fil0" d="M1870 1657l-667 0c34,170 175,229 335,229 172,-1 311,-77 333,-229z"/>
   <path class="fil0" d="M1241 1625l40 2 234 -565c6,-10 4,-7 10,-13 -2,73 -8,547 2,578l35 1 -1 -578c11,16 49,113 60,140 42,104 150,350 178,438l42 -1 -134 -332c-23,-56 -44,-110 -67,-163 -12,-27 -23,-55 -35,-82 -21,-49 -23,-35 -10,-86 162,-7 293,-120 439,-98 65,10 70,44 104,79l120 0c26,-31 29,-65 101,-78 138,-25 277,92 441,100 7,44 12,22 -14,83l-237 580 40 -2 119 -287c21,-51 38,-93 59,-144 16,-40 42,-111 61,-145l1 578 41 -2 -1 -571c16,19 114,267 122,286 39,96 84,189 117,285l40 -1c-74,-194 -161,-394 -241,-586 -33,-81 -24,-32 -13,-87 93,-14 66,-98 11,-91 -22,3 -42,22 -68,29 -120,35 -212,-107 -339,-143 -59,-16 -124,-11 -187,-7 -205,13 -391,-42 -530,56 -68,48 -158,142 -269,77 -71,-42 -102,38 -51,67 48,27 62,2 10,123l-233 561z"/>
  </g>
  <path class="fil1" d="M2062 197c-1083,71 -1939,993 -1867,2171 26,420 179,797 411,1106 93,124 160,186 271,295l176 140c106,77 289,177 411,225 282,110 525,159 864,141 353,-19 755,-172 1014,-370 24,-19 49,-35 74,-55l66 -56c15,-13 18,-13 34,-30 30,-31 60,-49 99,-93 109,-123 185,-202 276,-354 65,-109 118,-210 168,-339 98,-251 153,-572 133,-872 -23,-359 -122,-690 -296,-966 -34,-54 -68,-106 -104,-153 -19,-25 -34,-45 -55,-68 -22,-25 -35,-44 -60,-68 -22,-21 -39,-45 -61,-67l-81 -74c-152,-154 -407,-299 -605,-378 -257,-102 -561,-155 -870,-135zm-32 53c402,-39 864,75 1186,283 68,44 221,149 281,210 47,47 85,78 126,125l58 64c47,48 120,158 155,214 68,106 121,203 166,325 220,591 185,1258 -142,1794 -89,146 -135,199 -236,320 -11,13 -18,16 -30,28 -79,84 -165,164 -259,233 -163,120 -364,235 -566,294 -595,175 -1167,84 -1666,-257 -105,-72 -124,-99 -206,-163 -33,-26 -88,-90 -96,-97 -45,-38 -107,-112 -143,-161 -106,-142 -200,-296 -269,-468 -23,-57 -44,-119 -64,-182 -132,-407 -101,-890 36,-1278 93,-264 198,-421 362,-621 33,-40 165,-175 217,-216 213,-168 404,-284 674,-367 130,-40 266,-67 414,-81z"/>
  <g id="_766069264">
   <path class="fil2" d="M909 2676l-20 -30c-11,-22 -17,-45 -17,-69 0,-32 12,-62 36,-91 31,-38 74,-57 131,-57 38,0 87,13 145,40 58,26 108,57 149,93l0 46c-40,-32 -84,-60 -133,-82 -49,-22 -89,-33 -119,-33 -40,0 -73,13 -100,40 -27,27 -40,55 -40,87 0,15 1,27 2,34 1,7 4,15 7,23l124 0 41 77 -133 0 0 595 -77 -45 0 -550 -128 0 -41 -77 173 0z"/>
   <path id="1" class="fil2" d="M1522 3098c-13,10 -27,21 -44,33 -16,12 -31,21 -44,28 -32,15 -64,22 -98,22 -44,0 -87,-17 -128,-52 -47,-39 -71,-85 -71,-139 0,-38 13,-71 40,-98 32,-31 78,-47 140,-47 12,0 24,0 36,0 11,3 23,5 35,6 12,2 27,7 44,18 13,7 25,17 37,28 12,11 29,33 52,64l0 -208 -460 0 -38 -77 659 0 38 77 -122 0 0 595 -77 -45 0 -204zm-315 -80c0,34 9,60 27,79 18,19 43,28 74,28 28,0 63,-12 104,-36 41,-24 78,-54 109,-90 -22,-19 -48,-37 -78,-54 -38,-19 -71,-29 -101,-29 -42,0 -75,10 -99,31 -24,21 -37,44 -37,71z"/>
   <path class="fil2" d="M2421 3017c0,132 -48,227 -146,286 -35,21 -75,35 -120,42 -27,4 -67,6 -121,6 -24,0 -56,-1 -95,-2 -39,-2 -71,-2 -96,-2l-56 0c-3,0 -5,0 -5,-1 0,-1 -1,-2 -1,-3l0 -22c0,-4 2,-5 6,-5l71 0c5,0 8,-5 8,-14 0,-5 0,-46 0,-123 0,-77 0,-119 0,-126 0,-7 0,-45 -1,-112 -1,-67 -1,-103 -1,-109 0,-66 -6,-100 -19,-100l-73 0c-3,0 -5,-2 -5,-5l0 -22c0,-2 0,-3 1,-4 1,-1 2,-1 5,-1l318 0c46,0 88,6 127,18 39,12 77,35 112,67 59,53 89,131 89,233zm-103 57c0,-48 -5,-88 -14,-120 -11,-36 -29,-72 -56,-108 -29,-38 -66,-67 -111,-87 -43,-19 -84,-28 -124,-28 -13,0 -25,1 -34,3 -7,2 -11,8 -11,19 0,5 0,44 0,116 0,73 0,114 0,124l0 191c0,82 5,125 16,127 21,5 61,7 120,7 66,0 115,-16 148,-49 45,-46 67,-110 67,-194z"/>
   <path class="fil2" d="M3199 3341c0,4 -1,6 -4,6l-289 0c-4,0 -6,-2 -6,-5l0 -22c0,-4 3,-5 8,-5l73 0c6,0 10,-2 11,-5 1,-3 2,-13 2,-30 1,-35 1,-120 1,-256 0,-6 -3,-8 -8,-8l-293 0c-6,0 -9,3 -9,10 0,102 0,165 1,188 2,67 9,100 22,100l84 0c3,0 4,2 4,6l0 21c0,3 -1,5 -4,5l-289 0c-3,0 -5,0 -5,-1 0,-1 -1,-2 -1,-3l0 -21c0,-4 2,-6 6,-6l62 0c8,0 13,-2 14,-5 2,-3 2,-13 2,-30 0,-5 0,-48 -1,-127 -1,-79 -1,-124 -1,-132 0,-9 0,-43 -1,-103 0,-60 -1,-92 -1,-96 0,-60 -6,-91 -17,-91l-70 0c-5,0 -7,-2 -7,-5l0 -22c0,-3 2,-5 7,-5l285 0c4,0 7,2 7,7l0 20c0,3 -2,5 -7,5l-75 0c-10,0 -16,4 -16,12 0,3 0,40 0,110 0,70 0,107 0,112 0,7 3,11 8,11l293 0c6,0 8,-3 8,-9 0,-3 0,-28 0,-75 0,-47 0,-73 0,-78 0,-55 -7,-83 -20,-83l-77 0c-3,0 -5,-2 -5,-6l0 -21c0,-3 2,-5 7,-5l287 0c4,0 6,2 6,7l0 18c0,4 -2,6 -6,6l-67 0c-10,0 -15,1 -17,2 -2,1 -3,7 -3,15 0,0 0,84 0,252 0,129 0,204 1,224 2,60 9,91 20,91l73 0c4,0 6,2 6,6l0 20z"/>
   <path class="fil2" d="M3590 2711c1,6 0,12 -3,17 -9,18 -30,59 -65,124 -26,48 -48,103 -68,165 -18,59 -29,110 -34,154 -3,34 -2,70 3,108 2,14 6,33 14,58 2,7 0,10 -7,10 -1,0 -13,-5 -37,-14 -12,-4 -28,-10 -47,-18 -5,-3 -8,-10 -10,-22 -4,-24 -4,-50 -1,-78 6,-48 16,-94 30,-138 29,-87 58,-155 88,-204 12,-21 26,-45 43,-73 6,-9 9,-15 8,-18 0,-2 -2,-3 -6,-3 -2,0 -4,0 -7,1 -96,20 -117,38 -214,17 -7,-2 -11,-4 -12,-6 0,-3 0,-7 1,-11 2,-9 6,-20 9,-32 2,-9 4,-20 7,-32 1,-5 4,-7 9,-7 2,0 11,2 26,6 62,15 116,3 181,-4 39,-4 62,-7 67,-8 5,-1 9,-2 10,-2 9,0 14,4 15,12z"/>
   <path class="fil3" d="M3659 2607c0,19 -9,37 -28,52 -16,13 -31,20 -44,20 -26,0 -39,-12 -39,-37 0,-14 6,-28 19,-43 15,-17 34,-26 56,-26 24,0 36,12 36,35z"/>
  </g>
 </g>
</svg>
